<?xml version="1.0" encoding="UTF-8" standalone="no"?>
<svg
   xmlns:dc="http://purl.org/dc/elements/1.1/"
   xmlns:cc="http://creativecommons.org/ns#"
   xmlns:rdf="http://www.w3.org/1999/02/22-rdf-syntax-ns#"
   xmlns:svg="http://www.w3.org/2000/svg"
   xmlns="http://www.w3.org/2000/svg"
   xmlns:sodipodi="http://sodipodi.sourceforge.net/DTD/sodipodi-0.dtd"
   xmlns:inkscape="http://www.inkscape.org/namespaces/inkscape"
   width="59"
   height="59"
   viewBox="0 0 59 59"
   version="1.1"
   id="svg4571"
   sodipodi:docname="oc-logo-icon.svg"
   inkscape:version="0.92.1 r15371">
  <metadata
     id="metadata4575">
    <rdf:RDF>
      <cc:Work
         rdf:about="">
        <dc:format>image/svg+xml</dc:format>
        <dc:type
           rdf:resource="http://purl.org/dc/dcmitype/StillImage" />
        <dc:title>F41BE6DF-90FC-40C4-B22A-F0CAFA582A6D</dc:title>
      </cc:Work>
    </rdf:RDF>
  </metadata>
  <sodipodi:namedview
     pagecolor="#ffffff"
     bordercolor="#666666"
     borderopacity="1"
     objecttolerance="10"
     gridtolerance="10"
     guidetolerance="10"
     inkscape:pageopacity="0"
     inkscape:pageshadow="2"
     inkscape:window-width="1440"
     inkscape:window-height="866"
     id="namedview4573"
     showgrid="false"
     inkscape:zoom="5.9650803"
     inkscape:cx="46.546155"
     inkscape:cy="38.024705"
     inkscape:window-x="0"
     inkscape:window-y="0"
     inkscape:window-maximized="0"
     inkscape:current-layer="svg4571" />
  <!-- Generator: sketchtool 3.8.3 (29802) - http://www.bohemiancoding.com/sketch -->
  <title
     id="title4557">F41BE6DF-90FC-40C4-B22A-F0CAFA582A6D</title>
  <desc
     id="desc4559">Created with sketchtool.</desc>
  <defs
     id="defs4561" />
  <g
     id="home"
     style="fill:none;fill-rule:evenodd;stroke:none;stroke-width:1"
     transform="matrix(1.5445026,0,0,1.5445026,-0.16335079,-1.2356023)">
    <g
       id="HOME"
       transform="translate(-20,-15)">
      <g
         id="::-loged-in"
         transform="translate(0,5)">
        <g
           id="icon"
           transform="translate(20,10)">
          <g
             id="::-icon">
            <path
               d="m 31.6,19.9 c 0,2.4 -0.7,4.7 -1.9,6.6 l 4.9,4.9 C 37,28.2 38.5,24.2 38.5,19.9 38.5,15.6 37,11.6 34.6,8.4 l -4.9,4.9 c 1.2,1.9 1.9,4.1 1.9,6.6 z"
               id="Shape"
               inkscape:connector-curvature="0"
               style="fill:#b8d3f4" />
            <path
               d="M 19.4,32.1 C 12.7,32.1 7.2,26.6 7.2,19.9 7.2,13.2 12.7,7.7 19.4,7.7 c 2.5,0 4.7,0.7 6.6,2 L 30.9,4.8 C 27.7,2.4 23.7,0.9 19.4,0.9 8.9,0.9 0.3,9.4 0.3,20 c 0,10.6 8.6,19 19.1,19 4.4,0 8.4,-1.5 11.6,-3.9 l -4.9,-4.9 c -1.9,1.2 -4.2,1.9 -6.7,1.9 z"
               id="path4564"
               inkscape:connector-curvature="0"
               style="fill:#46b0ed" />
          </g>
        </g>
      </g>
    </g>
  </g>
</svg>
