<?xml version="1.0" encoding="UTF-8" standalone="no"?>
<svg width="500px" height="70px" class="align-middle"
     version="1.1" xmlns="http://www.w3.org/2000/svg" xmlns:xlink="http://www.w3.org/1999/xlink">
  <symbol viewBox="0 0 171 25" id="svg-logotype">
    <title>:: type</title>
    <g transform="translate(-.055)" fill-rule="evenodd"><path d="M164.402 16.786a4.252 4.252 0 0 1-3.214-1.43c-.045-.088-.045-.177.044-.222l7.5-3.17 2.19-.937c.088-.045.088-.09.088-.134-.714-3.08-3.527-5.357-6.83-5.223-3.484.134-6.386 2.946-6.52 6.428a6.773 6.773 0 0 0 6.787 7.098c2.813 0 5.223-1.74 6.25-4.196.045-.09 0-.18-.09-.18l-2.187-.4c-.044 0-.134 0-.134.09-.803 1.338-2.232 2.276-3.884 2.276zm0-8.66a4.22 4.22 0 0 1 3.215 1.472c.044.09.044.18-.045.223 0 0-7.233 3.082-7.322 3.126-.09.045-.18-.044-.18-.09V12.5c-.043-2.455 1.92-4.375 4.332-4.375zM157.348 5.893h-2.143c-.045 0-.09.045-.134.09l-3.482 10.222c-.09.224-.357.224-.446 0L147.66 5.982c0-.045-.045-.09-.134-.09h-2.143c-.09 0-.134.09-.134.18l4.42 12.857c0 .043.043.088.133.088h3.036c.043 0 .088-.045.133-.09l4.42-12.857c.09-.088.044-.177-.045-.177zM143.24 5.893h-2.188c-.09 0-.134.045-.134.134v12.857c0 .09.045.134.134.134h2.188c.09 0 .133-.045.133-.134V6.027c0-.045-.044-.134-.133-.134zM143.24 1.696h-2.188c-.09 0-.134.045-.134.134v2.188c0 .09.045.134.134.134h2.188c.09 0 .133-.045.133-.134V1.83c0-.09-.044-.134-.133-.134zM138.73 5.893h-2.455a.096.096 0 0 1-.09-.09V.224c0-.09-.044-.134-.134-.134h-2.186c-.09 0-.134.044-.134.133v5.58c0 .045-.045.09-.09.09h-2.41c-.09 0-.134.045-.134.134v2.187c0 .09.044.134.133.134h2.41c.045 0 .09.045.09.09v10.446c0 .09.044.134.134.134h2.187c.09 0 .135-.045.135-.134V8.437c0-.044.045-.09.09-.09h2.455c.09 0 .134-.043.134-.133V6.027c0-.045-.09-.134-.134-.134zM124.4 16.786c-2.68 0-4.78-2.41-4.288-5.18.268-1.517 1.786-3.08 3.304-3.392 1.652-.357 3.215.223 4.197 1.34a.136.136 0 0 0 .18 0l1.56-1.563a.136.136 0 0 0 0-.178c-1.293-1.428-3.213-2.276-5.312-2.187-3.436.18-6.294 2.99-6.472 6.43a6.773 6.773 0 0 0 6.786 7.097c1.964 0 3.75-.848 5-2.188.045-.044.045-.09 0-.134l-1.562-1.562a.136.136 0 0 0-.18 0c-.758.982-1.92 1.518-3.213 1.518zM109.8 16.786a4.252 4.252 0 0 1-3.216-1.43c-.044-.088-.044-.177.045-.222l7.5-3.17 2.187-.937c.09-.045.09-.09.09-.134-.715-3.08-3.527-5.357-6.83-5.223-3.484.134-6.386 2.946-6.52 6.428a6.773 6.773 0 0 0 6.787 7.098c2.812 0 5.223-1.74 6.25-4.196.045-.09 0-.18-.09-.18l-2.187-.4c-.044 0-.134 0-.134.09-.803 1.338-2.277 2.276-3.884 2.276zm0-8.66a4.22 4.22 0 0 1 3.214 1.472c.044.09.044.18-.045.223 0 0-7.234 3.082-7.323 3.126-.09.045-.18-.044-.18-.09V12.5c-.043-2.455 1.92-4.375 4.332-4.375zM101.182.09h-2.188c-.09 0-.134.044-.134.133v18.66c0 .09.045.135.134.135h2.188c.09 0 .134-.045.134-.134V.224c0-.09-.09-.135-.134-.135zM96.405.09h-2.188c-.09 0-.134.044-.134.133v18.66c0 .09.045.135.134.135h2.188c.09 0 .134-.045.134-.134V.224c-.046-.09-.09-.135-.135-.135zM85.69 8.125c2.41 0 4.33 1.964 4.33 4.33s-1.964 4.33-4.33 4.33c-2.367 0-4.33-1.964-4.33-4.33s1.92-4.33 4.33-4.33zm0-2.455a6.783 6.783 0 0 0-6.787 6.785 6.783 6.783 0 0 0 6.787 6.786 6.783 6.783 0 0 0 6.786-6.785A6.783 6.783 0 0 0 85.69 5.67zM73.233 16.786c-2.68 0-4.777-2.41-4.286-5.18.268-1.517 1.786-3.08 3.304-3.392 1.653-.357 3.215.223 4.198 1.34a.136.136 0 0 0 .178 0L78.19 7.99a.136.136 0 0 0 0-.178c-1.296-1.428-3.216-2.276-5.314-2.187-3.438.18-6.295 2.99-6.474 6.43a6.773 6.773 0 0 0 6.786 7.097c1.965 0 3.75-.848 5-2.188.046-.044.046-.09 0-.134l-1.562-1.562a.136.136 0 0 0-.178 0c-.76.982-1.92 1.518-3.215 1.518zM51.044 5.67c-1.43 0-3.08.893-3.84 1.964-.045.09-.223.045-.223-.045V6.026c0-.045-.044-.134-.133-.134H44.66c-.046 0-.135.045-.135.134V18.93c0 .043.045.133.134.133h2.187c.044 0 .134-.045.134-.134V12.5c0-2.455 1.653-4.196 4.02-4.196 3.124 0 4.062 2.053 4.062 4.464v6.16c0 .045.044.134.134.134h2.187c.045 0 .134-.044.134-.133v-6.162c.045-3.75-1.74-7.098-6.473-7.098zM36.623 16.786a4.252 4.252 0 0 1-3.215-1.43c-.045-.088-.045-.177.045-.222l7.5-3.17 2.188-.937c.09-.045.09-.09.09-.134-.714-3.08-3.527-5.357-6.83-5.223-3.483.134-6.385 2.946-6.52 6.428a6.773 6.773 0 0 0 6.787 7.098c2.813 0 5.224-1.74 6.25-4.196.046-.09 0-.18-.088-.18l-2.19-.4c-.044 0-.133 0-.133.09-.804 1.338-2.232 2.276-3.884 2.276zm0-8.66a4.22 4.22 0 0 1 3.214 1.472c.045.09.045.18-.044.223 0 0-7.233 3.082-7.323 3.126-.09.045-.178-.044-.178-.09V12.5c0-2.455 1.964-4.375 4.33-4.375zM21.8 5.536c-1.697.044-3.036.714-3.974 1.83-.09.09-.223.045-.223-.09v-1.25c0-.088-.045-.133-.134-.133h-2.19c-.088 0-.133.045-.133.134v18.705c0 .09.045.134.134.134h2.144c.09 0 .134-.045.134-.134v-7.366c0-.134.134-.178.224-.09.937 1.117 2.32 1.83 4.107 1.83 4.15 0 7.455-3.75 6.652-8.035-.536-3.258-3.483-5.58-6.742-5.534zm.848 11.07c-2.947.492-5.49-2.052-5-5 .312-1.785 1.74-3.258 3.527-3.526 2.947-.49 5.49 2.054 5 5-.268 1.786-1.74 3.215-3.527 3.527zM7.11 5.67a6.783 6.783 0 0 0-6.785 6.785A6.783 6.783 0 0 0 7.11 19.24a6.783 6.783 0 0 0 6.787-6.785A6.783 6.783 0 0 0 7.11 5.67zm0 2.455c2.412 0 4.332 1.964 4.332 4.33s-1.965 4.33-4.33 4.33c-2.367 0-4.332-1.964-4.332-4.33s1.965-4.33 4.33-4.33z"/></g>
  </symbol>
  <use xlink:href="#svg-logotype" fill="#303233"></use>
</svg>
